<svg width="108" height="108" viewBox="0 0 108 108" fill="none" xmlns="http://www.w3.org/2000/svg">
<mask id="mask0_6227_2818" style="mask-type:alpha" maskUnits="userSpaceOnUse" x="0" y="0" width="108" height="108">
<rect width="108" height="108" fill="#D9D9D9"/>
</mask>
<g mask="url(#mask0_6227_2818)">
<path d="M49.275 69.975L74.7 44.55L68.2875 38.1375L49.275 57.15L39.825 47.7L33.4125 54.1125L49.275 69.975ZM54 99C43.575 96.375 34.9688 90.3938 28.1813 81.0563C21.3938 71.7188 18 61.35 18 49.95V22.5L54 9L90 22.5V49.95C90 61.35 86.6063 71.7188 79.8188 81.0563C73.0312 90.3938 64.425 96.375 54 99ZM54 89.55C61.8 87.075 68.25 82.125 73.35 74.7C78.45 67.275 81 59.025 81 49.95V28.6875L54 18.5625L27 28.6875V49.95C27 59.025 29.55 67.275 34.65 74.7C39.75 82.125 46.2 87.075 54 89.55Z" fill="white"/>
</g>
</svg>
