<svg width="40" height="40" viewBox="0 0 40 40" fill="none" xmlns="http://www.w3.org/2000/svg">
<mask id="mask0_6230_2964" style="mask-type:alpha" maskUnits="userSpaceOnUse" x="0" y="0" width="40" height="40">
<rect width="40" height="40" fill="#D9D9D9"/>
</mask>
<g mask="url(#mask0_6230_2964)">
<path d="M13.3333 21.6667H26.6667C27.1389 21.6667 27.5347 21.5069 27.8542 21.1875C28.1736 20.8681 28.3333 20.4722 28.3333 20C28.3333 19.5278 28.1736 19.1319 27.8542 18.8125C27.5347 18.4931 27.1389 18.3333 26.6667 18.3333H13.3333C12.8611 18.3333 12.4653 18.4931 12.1458 18.8125C11.8264 19.1319 11.6667 19.5278 11.6667 20C11.6667 20.4722 11.8264 20.8681 12.1458 21.1875C12.4653 21.5069 12.8611 21.6667 13.3333 21.6667ZM8.33333 35C7.41667 35 6.63194 34.6736 5.97917 34.0208C5.32639 33.3681 5 32.5833 5 31.6667V8.33333C5 7.41667 5.32639 6.63194 5.97917 5.97917C6.63194 5.32639 7.41667 5 8.33333 5H31.6667C32.5833 5 33.3681 5.32639 34.0208 5.97917C34.6736 6.63194 35 7.41667 35 8.33333V31.6667C35 32.5833 34.6736 33.3681 34.0208 34.0208C33.3681 34.6736 32.5833 35 31.6667 35H8.33333ZM8.33333 31.6667H31.6667V8.33333H8.33333V31.6667Z" fill="#FF8800"/>
</g>
</svg>
