<svg width="40" height="40" viewBox="0 0 40 40" fill="none" xmlns="http://www.w3.org/2000/svg">
<mask id="mask0_6230_2954" style="mask-type:alpha" maskUnits="userSpaceOnUse" x="0" y="0" width="40" height="40">
<rect width="40" height="40" fill="#D9D9D9"/>
</mask>
<g mask="url(#mask0_6230_2954)">
<path d="M6.66666 30.0001V16.6667V17.2084V10.0001V30.0001ZM29.8333 34.1667L24 28.3334C23.6389 27.9723 23.3819 27.5834 23.2292 27.1667C23.0764 26.7501 23 26.3334 23 25.9167C23 25.0279 23.3194 24.2362 23.9583 23.5417C24.5972 22.8473 25.4167 22.5001 26.4167 22.5001C27.1944 22.5001 27.8056 22.6806 28.25 23.0417C28.6944 23.4029 29.2222 23.889 29.8333 24.5001C30.3889 23.9445 30.8958 23.4723 31.3542 23.0834C31.8125 22.6945 32.4444 22.5001 33.25 22.5001C34.2778 22.5001 35.1042 22.8542 35.7292 23.5626C36.3542 24.2709 36.6667 25.0695 36.6667 25.9584C36.6667 26.3751 36.5833 26.7917 36.4167 27.2084C36.25 27.6251 36 28.0001 35.6667 28.3334L29.8333 34.1667ZM6.66666 13.3334H33.3333V10.0001H6.66666V13.3334ZM19.2917 33.3334H6.66666C5.74999 33.3334 4.96527 33.007 4.31249 32.3542C3.65972 31.7015 3.33333 30.9167 3.33333 30.0001V10.0001C3.33333 9.08341 3.65972 8.29869 4.31249 7.64591C4.96527 6.99314 5.74999 6.66675 6.66666 6.66675H33.3333C34.25 6.66675 35.0347 6.99314 35.6875 7.64591C36.3403 8.29869 36.6667 9.08341 36.6667 10.0001V18.8751C35.6944 18.1806 34.6319 17.639 33.4792 17.2501C32.3264 16.8612 31.1111 16.6667 29.8333 16.6667C28.25 16.6667 26.7569 16.9654 25.3542 17.5626C23.9514 18.1598 22.7222 18.9723 21.6667 20.0001H6.66666V30.0001H18.2917C18.375 30.5834 18.5 31.1529 18.6667 31.7084C18.8333 32.264 19.0417 32.8056 19.2917 33.3334Z" fill="#FF8800"/>
</g>
</svg>
