<svg width="40" height="40" viewBox="0 0 40 40" fill="none" xmlns="http://www.w3.org/2000/svg">
<mask id="mask0_6230_2884" style="mask-type:alpha" maskUnits="userSpaceOnUse" x="0" y="0" width="40" height="40">
<rect width="40" height="40" fill="#D9D9D9"/>
</mask>
<g mask="url(#mask0_6230_2884)">
<path d="M18.25 25.9166L27.6666 16.4999L25.2916 14.1249L18.25 21.1666L14.75 17.6666L12.375 20.0416L18.25 25.9166ZM20 36.6666C16.1388 35.6944 12.9513 33.4791 10.4375 30.0208C7.92357 26.5624 6.66663 22.7221 6.66663 18.4999V8.33325L20 3.33325L33.3333 8.33325V18.4999C33.3333 22.7221 32.0763 26.5624 29.5625 30.0208C27.0486 33.4791 23.8611 35.6944 20 36.6666ZM20 33.1666C22.8888 32.2499 25.2777 30.4166 27.1666 27.6666C29.0555 24.9166 30 21.861 30 18.4999V10.6249L20 6.87492L9.99996 10.6249V18.4999C9.99996 21.861 10.9444 24.9166 12.8333 27.6666C14.7222 30.4166 17.1111 32.2499 20 33.1666Z" fill="#FF8800"/>
</g>
</svg>
