<svg width="40" height="40" viewBox="0 0 40 40" fill="none" xmlns="http://www.w3.org/2000/svg">
<mask id="mask0_6230_2949" style="mask-type:alpha" maskUnits="userSpaceOnUse" x="0" y="0" width="40" height="40">
<rect width="40" height="40" fill="#D9D9D9"/>
</mask>
<g mask="url(#mask0_6230_2949)">
<path d="M8.66667 34.9999C7.63889 34.9999 6.77083 34.6457 6.0625 33.9374C5.35417 33.2291 5 32.361 5 31.3332V8.49989C5 7.69433 5.375 7.13183 6.125 6.81239C6.875 6.49294 7.52778 6.611 8.08333 7.16655L11.8333 10.9166L9.58333 13.1666L10.75 14.3332L13 12.0832L17.3333 16.4166L15.0833 18.6666L16.25 19.8332L18.5 17.5832L22.8333 21.9166L20.5833 24.1666L21.75 25.3332L24 23.0832L28.3333 27.4166L26.0833 29.6666L27.25 30.8332L29.5 28.5832L32.8333 31.9166C33.3889 32.4721 33.5069 33.1249 33.1875 33.8749C32.8681 34.6249 32.3056 34.9999 31.5 34.9999H8.66667ZM10 29.9999H23.8333L10 16.1666V29.9999Z" fill="#FF8800"/>
</g>
</svg>
