<svg width="40" height="40" viewBox="0 0 40 40" fill="none" xmlns="http://www.w3.org/2000/svg">
<mask id="mask0_6230_2959" style="mask-type:alpha" maskUnits="userSpaceOnUse" x="0" y="0" width="40" height="40">
<rect width="40" height="40" fill="#D9D9D9"/>
</mask>
<g mask="url(#mask0_6230_2959)">
<path d="M20 36.6666L5 21.8333L13.3333 11.6666H26.6667L35 21.8333L20 36.6666ZM7.625 11.6666L4.08333 8.12492L6.45833 5.79159L10 9.33325L7.625 11.6666ZM18.3333 8.33325V3.33325H21.6667V8.33325H18.3333ZM32.2917 11.6666L29.9167 9.29159L33.4583 5.74992L35.8333 8.12492L32.2917 11.6666ZM20 31.9999L28.75 23.3333H11.25L20 31.9999ZM14.9167 14.9999L10.7917 19.9999H29.2083L25.0833 14.9999H14.9167Z" fill="#FF8800"/>
</g>
</svg>
