<svg width="48" height="48" viewBox="0 0 48 48" fill="none" xmlns="http://www.w3.org/2000/svg">
<mask id="mask0_6292_2960" style="mask-type:alpha" maskUnits="userSpaceOnUse" x="0" y="0" width="48" height="48">
<rect width="48" height="48" fill="#D9D9D9"/>
</mask>
<g mask="url(#mask0_6292_2960)">
<path d="M24 44.0002C21.5 44.0002 19.1583 43.5252 16.975 42.5752C14.7917 41.6252 12.8917 40.3419 11.275 38.7252C9.65835 37.1085 8.37501 35.2085 7.42501 33.0252C6.47501 30.8419 6.00001 28.5002 6.00001 26.0002C6.00001 23.5002 6.47501 21.1585 7.42501 18.9752C8.37501 16.7919 9.65835 14.8919 11.275 13.2752C12.8917 11.6585 14.7917 10.3752 16.975 9.4252C19.1583 8.4752 21.5 8.0002 24 8.0002C26.5 8.0002 28.8417 8.4752 31.025 9.4252C33.2083 10.3752 35.1083 11.6585 36.725 13.2752C38.3417 14.8919 39.625 16.7919 40.575 18.9752C41.525 21.1585 42 23.5002 42 26.0002C42 28.5002 41.525 30.8419 40.575 33.0252C39.625 35.2085 38.3417 37.1085 36.725 38.7252C35.1083 40.3419 33.2083 41.6252 31.025 42.5752C28.8417 43.5252 26.5 44.0002 24 44.0002ZM29.6 34.4002L32.4 31.6002L26 25.2002V16.0002H22V26.8002L29.6 34.4002ZM11.2 4.7002L14 7.5002L5.50001 16.0002L2.70001 13.2002L11.2 4.7002ZM36.8 4.7002L45.3 13.2002L42.5 16.0002L34 7.5002L36.8 4.7002ZM24 40.0002C27.9 40.0002 31.2083 38.6419 33.925 35.9252C36.6417 33.2085 38 29.9002 38 26.0002C38 22.1002 36.6417 18.7919 33.925 16.0752C31.2083 13.3585 27.9 12.0002 24 12.0002C20.1 12.0002 16.7917 13.3585 14.075 16.0752C11.3583 18.7919 10 22.1002 10 26.0002C10 29.9002 11.3583 33.2085 14.075 35.9252C16.7917 38.6419 20.1 40.0002 24 40.0002Z" fill="#FF8800"/>
</g>
</svg>
