<svg width="76" height="10" viewBox="0 0 76 10" fill="none" xmlns="http://www.w3.org/2000/svg">
<path d="M1.07793 5.10269C0.523863 5.46757 0.145802 6.03396 0.034422 6.68785C-0.0773919 7.34113 0.0866108 8.02836 0.482856 8.58779C0.8791 9.14722 1.47298 9.52997 2.12635 9.64126C2.78014 9.75316 3.43989 9.58447 3.96795 9.18286C4.49947 8.75517 5.61794 8.24738 6.66562 7.85359C13.7335 5.38882 21.7467 4.06753 29.4073 3.99796C36.0171 3.99766 43.4676 7.59038 50.8672 6.30608C58.1585 5.52751 65.1776 3.4396 72.018 1.20707C73.2188 0.810414 74.3435 0.425775 75.5705 0.000151661C74.3187 0.346208 73.1704 0.650926 71.9475 0.967224C64.99 2.73481 57.8396 4.33583 50.7538 4.6091C43.4837 5.35175 37.4118 1.52353 29.5374 0.849123C21.3025 0.400138 13.2975 1.13253 5.14916 3.35217C3.85042 3.76812 2.60927 4.125 1.07793 5.10269Z" fill="#FF8800"/>
</svg>
