<svg width="40" height="65" viewBox="0 0 40 65" fill="none" xmlns="http://www.w3.org/2000/svg">
<path d="M6.45275 63.817C6.79024 64.2265 7.27346 64.4797 7.80292 64.5148C8.33198 64.5502 8.86392 64.3648 9.27491 64.0051C9.68591 63.6455 9.94034 63.1429 9.97542 62.6138C10.0109 62.0844 9.82415 61.5719 9.46306 61.183C8.77993 60.4505 8.12675 59.6033 7.52899 58.7257C4.3999 54.0961 2.45576 48.2074 4.24202 42.9815C6.49878 36.8914 13.7641 32.3681 16.1484 25.1013C18.7966 17.9686 17.9465 10.388 16.321 3.33857C16.0517 2.19249 15.779 1.15094 15.4575 0C15.7143 1.16707 15.9217 2.22233 16.1251 3.37868C17.3484 10.492 17.6718 18.0199 14.7858 24.546C12.1643 31.3167 5.21066 34.5749 1.67379 42.0185C-0.876769 48.3461 1.09869 55.3228 4.32161 60.7636C4.952 61.8141 5.63584 62.8277 6.45275 63.817Z" fill="#FF8800"/>
<path d="M20.2737 60.0339C20.5964 60.4555 21.069 60.7234 21.5976 60.7699C22.1257 60.817 22.6666 60.6389 23.0911 60.2835C23.5156 59.9281 23.786 59.4269 23.8325 58.8988C23.8796 58.3702 23.699 57.8579 23.3407 57.4661C22.9111 57.0035 22.4869 56.449 22.0993 55.8747C20.0587 52.8244 18.8063 49.0022 19.8441 45.6129C21.1006 41.6903 25.967 38.3149 27.4168 33.2973C29.0509 28.3654 28.4039 23.2637 27.2809 18.5034C27.095 17.7307 26.9065 17.0264 26.6869 16.25C26.8417 17.0419 26.9647 17.7593 27.0847 18.5419C27.8039 23.362 27.9336 28.4206 26.0433 32.7715C24.3369 37.3091 19.7626 39.4151 17.2638 44.6871C15.4964 49.1364 16.7374 53.9841 18.8502 57.8453C19.2658 58.5916 19.7153 59.3108 20.2737 60.0339Z" fill="#FF8800"/>
<path d="M33.2531 59.9096C33.5278 60.3652 33.9656 60.678 34.4893 60.7657C35.0118 60.8542 35.5772 60.7104 36.0422 60.3795C36.5073 60.0485 36.8284 59.5614 36.9159 59.0387C37.0046 58.5153 36.8525 57.9991 36.5121 57.5904C36.3083 57.3611 36.09 57.056 35.8915 56.741C34.8342 55.044 34.189 52.9803 34.5647 51.1492C34.9395 49.1111 37.5625 46.6674 38.1035 43.6559C38.7675 40.6983 38.3223 37.7948 37.6656 35.0496C37.5573 34.6059 37.4472 34.1973 37.3224 33.75C37.3819 34.2105 37.4263 34.6304 37.4683 35.0826C37.7164 37.8759 37.6733 40.759 36.6996 43.226C35.8402 45.8264 33.4257 47.0029 31.9472 50.3508C30.9462 53.0999 31.4595 55.9873 32.5086 58.4719C32.7182 58.9516 32.9425 59.412 33.2531 59.9096Z" fill="#FF8800"/>
</svg>
