<svg width="24" height="24" viewBox="0 0 24 24" fill="none" xmlns="http://www.w3.org/2000/svg">
<path d="M12 0C18.6274 0 24 5.37258 24 12C24 18.6274 18.6274 24 12 24C5.37258 24 0 18.6274 0 12C9.66386e-08 5.37258 5.37258 9.66416e-08 12 0ZM11.999 5.60059C10.262 5.60059 10.0438 5.60761 9.36133 5.63867C8.67999 5.66987 8.21455 5.77825 7.80762 5.93652C7.38683 6.09998 7.02947 6.31903 6.67383 6.6748C6.31816 7.03031 6.09947 7.38713 5.93555 7.80762C5.77689 8.21467 5.66935 8.68032 5.63867 9.36133C5.60814 10.044 5.59961 10.2628 5.59961 12.001C5.59961 13.7386 5.60775 13.9562 5.63867 14.6387C5.67001 15.32 5.77741 15.7854 5.93555 16.1924C6.09914 16.6133 6.318 16.9705 6.67383 17.3262C7.02939 17.6821 7.387 17.901 7.80762 18.0645C8.21466 18.2226 8.67956 18.3311 9.36035 18.3623C10.043 18.3934 10.2614 18.4004 11.999 18.4004C13.7371 18.4004 13.9552 18.3934 14.6377 18.3623C15.319 18.3311 15.7852 18.2227 16.1924 18.0645C16.613 17.901 16.9697 17.6821 17.3252 17.3262C17.6812 16.9705 17.8995 16.6131 18.0635 16.1924C18.2208 15.7853 18.3293 15.3197 18.3613 14.6387C18.392 13.9563 18.3994 13.7385 18.3994 12.001C18.3994 10.2628 18.392 10.044 18.3613 9.36133C18.3293 8.68025 18.2207 8.21543 18.0635 7.80859C17.8995 7.38776 17.681 7.03046 17.3252 6.6748C16.9692 6.3188 16.6127 6.09986 16.1914 5.93652C15.7835 5.7783 15.3179 5.66987 14.6367 5.63867C13.9544 5.60762 13.7368 5.60059 11.999 5.60059Z" fill="#333333"/>
<path d="M11.427 6.75455C11.5973 6.75428 11.7877 6.75455 12.0012 6.75455C13.7097 6.75455 13.9124 6.76002 14.5871 6.79068C15.211 6.81922 15.55 6.92379 15.7756 7.01138C16.0741 7.12736 16.2871 7.26597 16.5109 7.4899C16.7349 7.7139 16.8732 7.92756 16.9895 8.22623C17.077 8.45152 17.1817 8.79 17.2102 9.41373C17.2408 10.0884 17.2473 10.2916 17.2473 11.9997C17.2473 13.7073 17.2408 13.9101 17.2102 14.5846C17.1816 15.2086 17.0771 15.5478 16.9895 15.7731C16.8735 16.0716 16.7349 16.2847 16.5109 16.5085C16.287 16.7323 16.0742 16.871 15.7756 16.987C15.5503 17.075 15.2111 17.1791 14.5871 17.2077C13.9125 17.2383 13.7097 17.2448 12.0012 17.2448C10.2922 17.2448 10.0889 17.2383 9.41426 17.2077C8.7905 17.1788 8.45147 17.0746 8.22578 16.987C7.92726 16.871 7.71437 16.7314 7.49043 16.5075C7.2665 16.2835 7.12719 16.0709 7.01094 15.7721C6.92338 15.5468 6.81963 15.2082 6.79121 14.5846C6.76055 13.91 6.7541 13.7068 6.7541 11.9977C6.7541 10.289 6.76056 10.0872 6.79121 9.41275C6.81974 8.78891 6.92335 8.44988 7.01094 8.22427C7.12694 7.9256 7.26643 7.71195 7.49043 7.48795C7.71424 7.26419 7.92746 7.12562 8.22578 7.00943C8.45134 6.92145 8.79052 6.81742 9.41426 6.78873C10.0047 6.76206 10.2341 6.75393 11.427 6.75259V6.75455ZM11.8322 8.71841C10.0956 8.80634 8.71407 10.2422 8.71407 12.0006C8.71422 13.8156 10.1862 15.2868 12.0012 15.2868C13.8161 15.2867 15.2872 13.8156 15.2873 12.0006C15.2873 10.1856 13.8162 8.71364 12.0012 8.71353L11.8322 8.71841ZM15.3381 7.82095C14.9513 7.86043 14.6489 8.18733 14.6486 8.58463C14.6486 9.00863 14.9932 9.35318 15.4172 9.35318C15.8411 9.35309 16.1848 9.00857 16.1848 8.58463C16.1845 8.16087 15.841 7.81714 15.4172 7.81705L15.3381 7.82095Z" fill="#333333"/>
<path fill-rule="evenodd" clip-rule="evenodd" d="M12.0007 9.86731C13.1788 9.86731 14.134 10.8224 14.134 12.0007C14.134 13.1788 13.1788 14.134 12.0007 14.134C10.8224 14.134 9.86732 13.1788 9.86732 12.0007C9.86732 10.8224 10.8224 9.86731 12.0007 9.86731V9.86731Z" fill="#333333"/>
</svg>
