<svg width="48" height="48" viewBox="0 0 48 48" fill="none" xmlns="http://www.w3.org/2000/svg">
<path d="M0 6C0 2.68629 2.68629 0 6 0H42C45.3137 0 48 2.68629 48 6V42C48 45.3137 45.3137 48 42 48H6C2.68629 48 0 45.3137 0 42V6Z" fill="#FF8800"/>
<mask id="mask0_8203_489" style="mask-type:alpha" maskUnits="userSpaceOnUse" x="8" y="8" width="32" height="32">
<rect x="8" y="8" width="32" height="32" fill="#D9D9D9"/>
</mask>
<g mask="url(#mask0_8203_489)">
<path d="M24.0001 37.3333L12.0001 25.4666L18.6667 17.3333H29.3334L36.0001 25.4666L24.0001 37.3333ZM14.1001 17.3333L11.2667 14.5L13.1667 12.6333L16.0001 15.4666L14.1001 17.3333ZM22.6667 14.6666V10.6666H25.3334V14.6666H22.6667ZM33.8334 17.3333L31.9334 15.4333L34.7667 12.6L36.6667 14.5L33.8334 17.3333ZM24.0001 33.6L31.0001 26.6666H17.0001L24.0001 33.6ZM19.9334 20L16.6334 24H31.3667L28.0667 20H19.9334Z" fill="white"/>
</g>
</svg>
