<svg width="48" height="48" viewBox="0 0 48 48" fill="none" xmlns="http://www.w3.org/2000/svg">
<path d="M0 6C0 2.68629 2.68629 0 6 0H42C45.3137 0 48 2.68629 48 6V42C48 45.3137 45.3137 48 42 48H6C2.68629 48 0 45.3137 0 42V6Z" fill="#FF8800"/>
<mask id="mask0_6208_488" style="mask-type:alpha" maskUnits="userSpaceOnUse" x="8" y="8" width="32" height="32">
<rect x="8" y="8" width="32" height="32" fill="#D9D9D9"/>
</mask>
<g mask="url(#mask0_6208_488)">
<path d="M24 26.6666L9.33337 18.6666L24 10.6666L38.6667 18.6666L24 26.6666ZM24 32L10.1 24.4333L12.9 22.9L24 28.9666L35.1 22.9L37.9 24.4333L24 32ZM24 37.3333L10.1 29.7666L12.9 28.2333L24 34.3L35.1 28.2333L37.9 29.7666L24 37.3333ZM24 23.6333L33.1 18.6666L24 13.7L14.9 18.6666L24 23.6333Z" fill="white"/>
</g>
</svg>
