<svg width="48" height="48" viewBox="0 0 48 48" fill="none" xmlns="http://www.w3.org/2000/svg">
<path d="M0 6C0 2.68629 2.68629 0 6 0H42C45.3137 0 48 2.68629 48 6V42C48 45.3137 45.3137 48 42 48H6C2.68629 48 0 45.3137 0 42V6Z" fill="#FF8800"/>
<mask id="mask0_8203_1251" style="mask-type:alpha" maskUnits="userSpaceOnUse" x="8" y="8" width="32" height="32">
<rect x="8" y="8" width="32" height="32" fill="#D9D9D9"/>
</mask>
<g mask="url(#mask0_8203_1251)">
<path d="M24 37.3333C22.1556 37.3333 20.4222 36.9833 18.8 36.2833C17.1778 35.5833 15.7667 34.6333 14.5667 33.4333C13.3667 32.2333 12.4167 30.8222 11.7167 29.2C11.0167 27.5777 10.6667 25.8444 10.6667 24C10.6667 22.1555 11.0167 20.4222 11.7167 18.8C12.4167 17.1777 13.3667 15.7666 14.5667 14.5666C15.7667 13.3666 17.1778 12.4166 18.8 11.7166C20.4222 11.0166 22.1556 10.6666 24 10.6666C25.8445 10.6666 27.5778 11.0166 29.2 11.7166C30.8222 12.4166 32.2334 13.3666 33.4334 14.5666C34.6334 15.7666 35.5834 17.1777 36.2834 18.8C36.9834 20.4222 37.3334 22.1555 37.3334 24C37.3334 25.8444 36.9834 27.5777 36.2834 29.2C35.5834 30.8222 34.6334 32.2333 33.4334 33.4333C32.2334 34.6333 30.8222 35.5833 29.2 36.2833C27.5778 36.9833 25.8445 37.3333 24 37.3333ZM25.3334 34.5666C27.9778 34.2333 30.1945 33.0722 31.9834 31.0833C33.7722 29.0944 34.6667 26.7333 34.6667 24C34.6667 21.2666 33.7722 18.9055 31.9834 16.9166C30.1945 14.9277 27.9778 13.7666 25.3334 13.4333V34.5666Z" fill="white"/>
</g>
</svg>
