<svg width="48" height="48" viewBox="0 0 48 48" fill="none" xmlns="http://www.w3.org/2000/svg">
<path d="M0 6C0 2.68629 2.68629 0 6 0H42C45.3137 0 48 2.68629 48 6V42C48 45.3137 45.3137 48 42 48H6C2.68629 48 0 45.3137 0 42V6Z" fill="#FF8800"/>
<mask id="mask0_8203_133" style="mask-type:alpha" maskUnits="userSpaceOnUse" x="8" y="8" width="32" height="32">
<rect x="8" y="8" width="32" height="32" fill="#D9D9D9"/>
</mask>
<g mask="url(#mask0_8203_133)">
<path d="M36.4 32.9333L32.4 28.9333L34.2667 27.0666L38.2667 31.0666L36.4 32.9333ZM31.6 16.9333L29.7333 15.0666L33.7333 11.0666L35.6 12.9333L31.6 16.9333ZM16.4 16.9333L12.4 12.9333L14.2667 11.0666L18.2667 15.0666L16.4 16.9333ZM11.6 32.9333L9.73334 31.0666L13.7333 27.0666L15.6 28.9333L11.6 32.9333ZM19.8 30.4333L24 27.9L28.2 30.4666L27.1 25.6666L30.8 22.4666L25.9333 22.0333L24 17.5L22.0667 22L17.2 22.4333L20.9 25.6666L19.8 30.4333ZM15.7667 36L17.9333 26.6333L10.6667 20.3333L20.2667 19.5L24 10.6666L27.7333 19.5L37.3333 20.3333L30.0667 26.6333L32.2333 36L24 31.0333L15.7667 36Z" fill="white"/>
</g>
</svg>
