<svg width="111" height="464" viewBox="0 0 111 464" fill="none" xmlns="http://www.w3.org/2000/svg">
<g clip-path="url(#clip0_6237_808)">
<path d="M0 24C0 10.7452 10.7452 0 24 0H87C100.255 0 111 10.7452 111 24V440C111 453.255 100.255 464 87 464H24C10.7452 464 0 453.255 0 440V24Z" fill="#F1F1F1"/>
<path fill-rule="evenodd" clip-rule="evenodd" d="M50.5386 54.0697C-12.1912 -26.9231 -137.53 -3.25364 -239.946 -0.87194C-337.292 1.39191 -444.845 -2.78283 -512.583 67.1654C-579.361 136.122 -581.642 243.368 -568.563 338.465C-557.405 419.593 -500.314 478.875 -447.368 541.349C-387.773 611.668 -337.291 695.471 -247.686 717.085C-137.788 743.595 7.46631 758.15 74.7336 667.291C141.905 576.562 32.3101 457.704 27.8595 344.902C23.8742 243.895 112.437 133.989 50.5386 54.0697Z" fill="#E16A00"/>
<path fill-rule="evenodd" clip-rule="evenodd" d="M26.7009 -3.74887C-38.6543 -82.6384 -163.149 -54.8666 -265.431 -49.1236C-362.65 -43.6649 -470.282 -44.3062 -535.687 27.8283C-600.166 98.9401 -598.924 206.203 -582.73 300.819C-568.914 381.538 -509.908 438.913 -454.939 499.615C-393.068 567.939 -339.861 650.04 -249.595 668.701C-138.885 691.588 6.76824 701.366 71.0162 608.348C135.173 515.462 21.7344 400.266 13.5826 287.671C6.28314 186.849 91.1897 74.095 26.7009 -3.74887Z" fill="#FF8800"/>
</g>
<defs>
<clipPath id="clip0_6237_808">
<path d="M0 24C0 10.7452 10.7452 0 24 0H87C100.255 0 111 10.7452 111 24V440C111 453.255 100.255 464 87 464H24C10.7452 464 0 453.255 0 440V24Z" fill="white"/>
</clipPath>
</defs>
</svg>
