<svg width="48" height="48" viewBox="0 0 48 48" fill="none" xmlns="http://www.w3.org/2000/svg">
<mask id="mask0_8203_728" style="mask-type:alpha" maskUnits="userSpaceOnUse" x="0" y="0" width="48" height="48">
<rect width="48" height="48" fill="#D9D9D9"/>
</mask>
<g mask="url(#mask0_8203_728)">
<path d="M42.6 37.4L36.6 31.4L39.4 28.6L45.4 34.6L42.6 37.4ZM35.4 13.4L32.6 10.6L38.6 4.6L41.4 7.4L35.4 13.4ZM12.6 13.4L6.59998 7.4L9.39998 4.6L15.4 10.6L12.6 13.4ZM5.39998 37.4L2.59998 34.6L8.59998 28.6L11.4 31.4L5.39998 37.4ZM17.7 33.65L24 29.85L30.3 33.7L28.65 26.5L34.2 21.7L26.9 21.05L24 14.25L21.1 21L13.8 21.65L19.35 26.5L17.7 33.65ZM11.65 42L14.9 27.95L3.99998 18.5L18.4 17.25L24 4L29.6 17.25L44 18.5L33.1 27.95L36.35 42L24 34.55L11.65 42Z" fill="#FF8800"/>
</g>
</svg>
