<svg width="48" height="48" viewBox="0 0 48 48" fill="none" xmlns="http://www.w3.org/2000/svg">
<path d="M24 3.98431C28.6176 3.98766 33.092 5.58697 36.6656 8.51134C40.2391 11.4357 42.6919 15.5054 43.6087 20.031C44.5254 24.5567 43.8497 29.2601 41.6959 33.3446C39.5422 37.4292 36.0428 40.6437 31.7906 42.4438C26.9025 44.4908 21.4022 44.5165 16.4952 42.5151C11.5882 40.5137 7.67477 36.6485 5.61271 31.7667C3.55065 26.8849 3.50812 21.3847 5.49446 16.4716C7.48079 11.5585 11.3339 7.63326 16.2094 5.55624C18.6741 4.51362 21.3238 3.97898 24 3.98431ZM24 2C11.85 2 2 11.85 2 24C2 36.15 11.85 46 24 46C36.15 46 46 36.15 46 24C46 11.85 36.15 2 24 2Z" fill="#FF8800"/>
<path d="M19.5141 14.9415V33.0591H15.3729V19.3156L12.1635 20.1956L11.1541 16.6497L15.8906 14.9415H19.5141ZM22.1023 24.0003C22.1023 18.4097 24.7941 14.5791 29.4788 14.5791C34.1635 14.5791 36.8553 18.4097 36.8553 24.0003C36.8553 29.5909 34.1635 33.4215 29.4788 33.4215C24.7941 33.4215 22.1023 29.5909 22.1023 24.0003ZM32.7141 24.0003C32.7141 20.5062 31.6529 18.6167 29.4788 18.6167C27.3047 18.6167 26.2435 20.5062 26.2435 24.0003C26.2435 27.4944 27.3047 29.3838 29.4788 29.3838C31.6529 29.3838 32.7141 27.4944 32.7141 24.0003Z" fill="#FF8800"/>
</svg>
