<svg width="48" height="48" viewBox="0 0 48 48" fill="none" xmlns="http://www.w3.org/2000/svg">
<mask id="mask0_8203_627" style="mask-type:alpha" maskUnits="userSpaceOnUse" x="0" y="0" width="48" height="48">
<rect width="48" height="48" fill="#D9D9D9"/>
</mask>
<g mask="url(#mask0_8203_627)">
<path d="M24 40C26.5 40 28.625 39.125 30.375 37.375C32.125 35.625 33 33.5 33 31C33 28.5 32.125 26.375 30.375 24.625C28.625 22.875 26.5 22 24 22C21.5 22 19.375 22.875 17.625 24.625C15.875 26.375 15 28.5 15 31C15 33.5 15.875 35.625 17.625 37.375C19.375 39.125 21.5 40 24 40ZM18.15 19.4C18.8167 19.0333 19.525 18.7417 20.275 18.525C21.025 18.3083 21.7833 18.1667 22.55 18.1L17.5 8H12.5L18.15 19.4ZM29.85 19.4L35.55 8H30.5L26.25 16.5L27.2 18.4C27.6667 18.5333 28.1167 18.675 28.55 18.825C28.9833 18.975 29.4167 19.1667 29.85 19.4ZM12.8 37.6C12.2333 36.6333 11.7917 35.5917 11.475 34.475C11.1583 33.3583 11 32.2 11 31C11 29.8 11.1583 28.6417 11.475 27.525C11.7917 26.4083 12.2333 25.3667 12.8 24.4C11.4 24.8667 10.25 25.6917 9.35 26.875C8.45 28.0583 8 29.4333 8 31C8 32.5667 8.45 33.9417 9.35 35.125C10.25 36.3083 11.4 37.1333 12.8 37.6ZM35.2 37.6C36.6 37.1333 37.75 36.3083 38.65 35.125C39.55 33.9417 40 32.5667 40 31C40 29.4333 39.55 28.0583 38.65 26.875C37.75 25.6917 36.6 24.8667 35.2 24.4C35.7667 25.3667 36.2083 26.4083 36.525 27.525C36.8417 28.6417 37 29.8 37 31C37 32.2 36.8417 33.3583 36.525 34.475C36.2083 35.5917 35.7667 36.6333 35.2 37.6ZM24 44C22.6667 44 21.3917 43.8083 20.175 43.425C18.9583 43.0417 17.8333 42.5167 16.8 41.85C16.5 41.9167 16.2 41.9583 15.9 41.975C15.6 41.9917 15.2833 42 14.95 42C11.9167 42 9.33333 40.9333 7.2 38.8C5.06667 36.6667 4 34.0833 4 31.05C4 28.15 4.96667 25.6667 6.9 23.6C8.83333 21.5333 11.2167 20.3833 14.05 20.15L6 4H20L24 12L28 4H42L34 20.05C36.8333 20.3167 39.2083 21.4833 41.125 23.55C43.0417 25.6167 44 28.1 44 31C44 34.0667 42.9333 36.6667 40.8 38.8C38.6667 40.9333 36.0667 42 33 42C32.7 42 32.3917 41.9917 32.075 41.975C31.7583 41.9583 31.45 41.9167 31.15 41.85C30.1167 42.5167 29 43.0417 27.8 43.425C26.6 43.8083 25.3333 44 24 44ZM20.3 36.5L21.7 31.95L18 29.3H22.55L24 24.5L25.45 29.3H30L26.3 31.95L27.7 36.5L24 33.7L20.3 36.5Z" fill="#FF8800"/>
</g>
</svg>
