<svg width="24" height="24" viewBox="0 0 24 24" fill="none" xmlns="http://www.w3.org/2000/svg">
<path d="M12 0C18.6274 0 24 5.37258 24 12C24 18.6274 18.6274 24 12 24C5.37258 24 0 18.6274 0 12C9.66386e-08 5.37258 5.37258 9.66416e-08 12 0ZM11.7549 8.80176C11.0681 8.795 10.4865 8.80398 10.1572 8.96191C9.93831 9.06709 9.76981 9.30192 9.87305 9.31543C10.0003 9.33207 10.2878 9.39182 10.4404 9.5957C10.6375 9.8594 10.6309 10.4502 10.6309 10.4502C10.6314 10.4581 10.7434 12.0805 10.3662 12.2822C10.107 12.4211 9.75158 12.1376 8.9873 10.8418C8.59664 10.1792 8.30073 9.44664 8.2998 9.44434C8.2998 9.44434 8.24347 9.30719 8.1416 9.2334C8.01827 9.14429 7.8457 9.11621 7.8457 9.11621L6.0166 9.12793C6.00539 9.12828 5.74039 9.13823 5.6416 9.25293C5.55368 9.35492 5.63194 9.56477 5.63477 9.57227C5.63477 9.57227 7.06603 12.8612 8.6875 14.5186C10.1689 16.0321 11.85 15.9382 11.8623 15.9375H12.627C12.627 15.9375 12.8582 15.9127 12.9766 15.7881C13.0838 15.6749 13.0811 15.4622 13.0811 15.458C13.0811 15.458 13.0668 14.4508 13.543 14.3018C14.0125 14.1555 14.616 15.2762 15.2559 15.707C15.7322 16.0279 16.0953 15.9628 16.1055 15.9609L17.8154 15.9375C17.8154 15.9375 18.71 15.8835 18.2861 15.1934C18.251 15.1367 18.0381 14.6827 17.0146 13.75C15.9424 12.7737 16.0862 12.9314 17.377 11.2422C18.1628 10.2141 18.4776 9.58619 18.3799 9.31738C18.2877 9.06354 17.7213 9.1264 17.708 9.12793L15.7832 9.13965C15.7776 9.13893 15.6388 9.12211 15.5352 9.18262C15.4319 9.24345 15.3643 9.38574 15.3643 9.38574C15.3619 9.39183 15.0589 10.1839 14.6543 10.8584C13.7979 12.2854 13.4549 12.3626 13.3145 12.2744C12.9883 12.0673 13.0693 11.4431 13.0693 11C13.0694 9.61581 13.2834 9.03909 12.6533 8.88965C12.4442 8.83988 12.29 8.80729 11.7549 8.80176Z" fill="#333333"/>
</svg>
