<svg width="24" height="24" viewBox="0 0 24 24" fill="none" xmlns="http://www.w3.org/2000/svg">
<path fill-rule="evenodd" clip-rule="evenodd" d="M12 24C18.6274 24 24 18.6274 24 12C24 5.37258 18.6274 0 12 0C5.37258 0 0 5.37258 0 12C0 18.6274 5.37258 24 12 24Z" fill="#333333"/>
<path fill-rule="evenodd" clip-rule="evenodd" d="M12.3955 18.6763H12.3926C11.1983 18.6758 10.0249 18.3762 8.98267 17.8077L5.2 18.8L6.2123 15.1024C5.58786 14.0203 5.25929 12.7927 5.25982 11.5351C5.26139 7.60084 8.46241 4.39999 12.3955 4.39999C14.3043 4.40082 16.0959 5.14393 17.4431 6.4927C18.7903 7.8414 19.5318 9.63416 19.5311 11.5407C19.5295 15.4741 16.3297 18.6746 12.3955 18.6763ZM9.15792 16.5159L9.37449 16.6445C10.2851 17.1848 11.3289 17.4708 12.3931 17.4712H12.3955C15.6644 17.4712 18.325 14.8106 18.3263 11.5403C18.3269 9.9556 17.7106 8.46554 16.5908 7.34449C15.4711 6.22344 13.982 5.60576 12.3979 5.60521C9.12645 5.60521 6.46588 8.26555 6.46458 11.5355C6.46412 12.6562 6.77767 13.7476 7.37136 14.6918L7.51237 14.9162L6.91323 17.1048L9.15792 16.5159ZM15.9904 13.2376C15.9458 13.1632 15.827 13.1186 15.6487 13.0293C15.4704 12.9401 14.5938 12.5088 14.4304 12.4492C14.267 12.3897 14.1481 12.36 14.0292 12.5385C13.9104 12.7169 13.5687 13.1186 13.4647 13.2376C13.3607 13.3565 13.2567 13.3715 13.0784 13.2822C12.9001 13.1929 12.3256 13.0047 11.6446 12.3972C11.1146 11.9245 10.7568 11.3406 10.6528 11.1621C10.5488 10.9836 10.6417 10.8872 10.7309 10.7983C10.8111 10.7183 10.9092 10.59 10.9984 10.4859C11.0875 10.3818 11.1172 10.3074 11.1767 10.1885C11.2361 10.0694 11.2064 9.96535 11.1618 9.8761C11.1172 9.78685 10.7607 8.90925 10.6121 8.55225C10.4674 8.20458 10.3204 8.25168 10.2109 8.24619C10.1071 8.24097 9.98806 8.23987 9.86922 8.23987C9.75036 8.23987 9.55719 8.2845 9.39377 8.463C9.23035 8.6415 8.76975 9.07285 8.76975 9.95038C8.76975 10.828 9.40862 11.6758 9.49777 11.7948C9.58691 11.9138 10.755 13.7146 12.5436 14.4869C12.9689 14.6706 13.301 14.7803 13.56 14.8625C13.9871 14.9982 14.3758 14.9791 14.6829 14.9332C15.0255 14.882 15.7378 14.5019 15.8864 14.0854C16.0349 13.6689 16.0349 13.3119 15.9904 13.2376Z" fill="#FDFDFD"/>
</svg>
